<?xml version="1.0" encoding="UTF-8"?>
<svg width="48px" height="48px" viewBox="0 0 48 48" version="1.1" xmlns="http://www.w3.org/2000/svg" xmlns:xlink="http://www.w3.org/1999/xlink">
    <!-- Generator: Sketch 52.3 (67297) - http://www.bohemiancoding.com/sketch -->
    <title>Icon/Social/Facebook@2x</title>
    <desc>Created with Sketch.</desc>
    <defs>
        <path d="M30.2325,15.984 L27.9735,15.9855 C26.202,15.9855 25.8585,16.827 25.8585,18.0615 L25.8585,20.7855 L30.084,20.7855 L29.5335,25.053 L25.8585,25.053 L25.8585,36 L21.453,36 L21.453,25.053 L17.769,25.053 L17.769,20.7855 L21.453,20.7855 L21.453,17.64 C21.453,13.9875 23.6835,12 26.94,12 C28.5,12 29.841,12.1155 30.2325,12.168 L30.2325,15.984 Z M0,48 L48,48 L48,0 L0,0 L0,48 Z" id="path-1"></path>
    </defs>
    <g id="Icon/Social/Facebook" stroke="none" stroke-width="1" fill="none" fill-rule="evenodd">
        <g id="↳🎨-Color">
            <mask id="mask-2" fill="white">
                <use xlink:href="#path-1"></use>
            </mask>
            <use id="Mask" fill="#444444" xlink:href="#path-1"></use>
            <g id="Color/Grayscale/80" mask="url(#mask-2)" fill="#A4A9AC">
                <rect id="Swatch" x="0" y="0" width="48" height="48"></rect>
            </g>
        </g>
    </g>
</svg>