<svg width="48" height="48" viewBox="0 0 48 48" version="1.1" xmlns="http://www.w3.org/2000/svg" xmlns:xlink="http://www.w3.org/1999/xlink"><defs><path d="M16 0c8.837 0 16 7.163 16 16s-7.163 16-16 16S0 24.837 0 16 7.163 0 16 0zm-2.602 18.196c-2.031-.023-3.752 1.284-3.752 2.796 0 1.545 1.465 2.827 3.497 2.827 2.595 0 3.849-1.205 3.849-2.748 0-1.473-1.344-2.875-3.594-2.875zm-.27 6.573c-2.938 0-5.387-1.267-5.387-3.396 0-1.646 1.04-3.78 5.907-3.78-.722-.587-.901-1.408-.458-2.3-2.85 0-4.308-1.669-4.308-3.794 0-2.081 1.547-3.96 4.703-3.96h5.056l-1.13 1.13h-1.326c.936.563 1.433 1.655 1.433 2.872 0 1.119-.615 2.04-1.492 2.718-1.56 1.206-1.16 1.878.471 3.069 1.613 1.206 2.145 2.139 2.145 3.564 0 1.748-1.597 3.877-5.613 3.877zm11.13-8.904h-1.974v1.975h-1.2v-1.975h-1.905v-1.2h1.905V12.76h1.2v1.906h1.975v1.2zm-8.67-4.232c.236 1.79-.55 2.94-1.913 2.9-1.362-.04-2.657-1.29-2.892-3.08-.235-1.79.679-3.16 2.04-3.119 1.364.041 2.529 1.51 2.764 3.299z" id="path-1"/></defs><g id="Icon/Social/Google+" stroke="none" stroke-width="1" fill="none" fill-rule="evenodd"><g id="Color/Grayscale/80" fill="#A4A9AC"><path id="Swatch" d="M0 0h48v48H0z"/></g><g id="↳🎨-Color" transform="translate(8 8)"><g id="Icon"><mask id="mask-2" fill="#fff"><use xlink:href="#path-1"/></mask><use id="Mask" fill="#384048" xlink:href="#path-1"/><g id="Color/Grayscale/White" mask="url(#mask-2)" fill="#FFF"><path d="M0 0h48v48H0z" transform="translate(-8 -8)" id="Swatch"/></g></g></g></g></svg>