<svg width="48" height="48" viewBox="0 0 48 48" version="1.1" xmlns="http://www.w3.org/2000/svg" xmlns:xlink="http://www.w3.org/1999/xlink"><defs><path d="M36 33.153V14.846A2.848 2.848 0 0 0 33.147 12H14.853A2.85 2.85 0 0 0 12 14.845v18.308A2.85 2.85 0 0 0 14.853 36h18.294A2.85 2.85 0 0 0 36 33.153zM0 48V0h48v48H0zm31.55-23.736c0-.666-.09-1.311-.26-1.924h2.243v10.424c0 .37-.3.67-.671.67h-17.21a.67.67 0 0 1-.67-.67V22.34h2.243a7.217 7.217 0 0 0-.26 1.924c0 4.01 3.271 7.275 7.292 7.275 4.022 0 7.292-3.265 7.292-7.275zm-1.985-4.711a.67.67 0 0 1-.67-.668V15.65a.67.67 0 0 1 .67-.668h3.241c.37 0 .671.3.671.668v3.235a.67.67 0 0 1-.67.668h-3.242zm-5.308 9.31a4.605 4.605 0 0 1-4.61-4.6 4.604 4.604 0 0 1 4.61-4.598 4.604 4.604 0 0 1 4.61 4.598c0 2.541-2.064 4.6-4.61 4.6z" id="path-1"/></defs><g id="Icon/Social/Instagram" stroke="none" stroke-width="1" fill="none" fill-rule="evenodd"><g id="↳🎨-Color"><mask id="mask-2" fill="#fff"><use xlink:href="#path-1"/></mask><use id="Mask" fill="#444" xlink:href="#path-1"/><g id="Color/Grayscale/80" mask="url(#mask-2)" fill="#A4A9AC"><path id="Swatch" d="M0 0h48v48H0z"/></g></g></g></svg>