<?xml version="1.0" encoding="UTF-8"?>
<svg width="48px" height="48px" viewBox="0 0 48 48" version="1.1" xmlns="http://www.w3.org/2000/svg" xmlns:xlink="http://www.w3.org/1999/xlink">
    <!-- Generator: Sketch 52.3 (67297) - http://www.bohemiancoding.com/sketch -->
    <title>Icon/Social/Instagram@2x</title>
    <desc>Created with Sketch.</desc>
    <defs>
        <path d="M36,33.153 L36,14.8455 C36,13.2735 34.7235,12 33.147,12 L14.853,12 C13.278,12 12,13.2735 12,14.8455 L12,33.153 C12,34.725 13.278,36 14.853,36 L33.147,36 C34.7235,36 36,34.725 36,33.153 Z M3.55271368e-15,48 L3.55271368e-15,3.55271368e-15 L48,3.55271368e-15 L48,48 L3.55271368e-15,48 Z M31.5490843,24.2636399 C31.5490843,23.5984394 31.4591923,22.9527154 31.2898958,22.3399518 L33.5327004,22.3399518 L33.5327004,32.7644237 C33.5327004,33.134479 33.2330605,33.4341189 32.861507,33.4341189 L15.6516898,33.4341189 C15.2816345,33.4341189 14.9819946,33.134479 14.9819946,32.7644237 L14.9819946,22.3399518 L17.2247992,22.3399518 C17.0555027,22.9527154 16.9656107,23.5984394 16.9656107,24.2636399 C16.9656107,28.2743199 20.2361801,31.5388965 24.2573475,31.5388965 C28.2785149,31.5388965 31.5490843,28.2743199 31.5490843,24.2636399 Z M29.5654682,19.5530012 C29.1954129,19.5530012 28.8942748,19.2533613 28.8942748,18.8848042 L28.8942748,15.6501916 C28.8942748,15.2816345 29.1954129,14.9819946 29.5654682,14.9819946 L32.8060736,14.9819946 C33.1761289,14.9819946 33.477267,15.2816345 33.477267,15.6501916 L33.477267,18.8848042 C33.477267,19.2533613 33.1761289,19.5530012 32.8060736,19.5530012 L29.5654682,19.5530012 Z M24.2571977,28.862513 C21.7117568,28.862513 19.6472379,26.803987 19.6472379,24.2630407 C19.6472379,21.7235926 21.7117568,19.6650665 24.2571977,19.6650665 C26.8026386,19.6650665 28.8671574,21.7235926 28.8671574,24.2630407 C28.8671574,26.803987 26.8026386,28.862513 24.2571977,28.862513 Z" id="path-1"></path>
    </defs>
    <g id="Icon/Social/Instagram" stroke="none" stroke-width="1" fill="none" fill-rule="evenodd">
        <g id="↳🎨-Color">
            <mask id="mask-2" fill="white">
                <use xlink:href="#path-1"></use>
            </mask>
            <use id="Mask" fill="#444444" xlink:href="#path-1"></use>
            <g id="Color/Grayscale/80" mask="url(#mask-2)" fill="#A4A9AC">
                <rect id="Swatch" x="0" y="0" width="48" height="48"></rect>
            </g>
        </g>
    </g>
</svg>