<svg width="48" height="48" viewBox="0 0 48 48" version="1.1" xmlns="http://www.w3.org/2000/svg" xmlns:xlink="http://www.w3.org/1999/xlink"><defs><path d="M25.851 29.345c-1.488 0-2.889-.804-3.367-1.72 0 0-.802 3.177-.97 3.791-.596 2.166-2.353 4.333-2.49 4.51-.094.125-.304.086-.326-.078-.038-.276-.486-3.01.041-5.239l1.773-7.512s-.439-.88-.439-2.181c0-2.043 1.183-3.569 2.658-3.569 1.254 0 1.858.942 1.858 2.07 0 1.26-.802 3.146-1.216 4.892-.347 1.462.733 2.655 2.176 2.655 2.61 0 4.37-3.354 4.37-7.329 0-3.021-2.034-5.283-5.736-5.283-4.18 0-6.788 3.119-6.788 6.603 0 1.2.356 2.048.911 2.703.255.301.291.423.198.768-.068.255-.218.864-.282 1.107-.091.35-.373.474-.69.345-1.925-.786-2.823-2.896-2.823-5.267 0-3.916 3.303-8.611 9.852-8.611 5.265 0 8.728 3.807 8.728 7.898 0 5.407-3.007 9.447-7.438 9.447zM0 48h48V0H0v48z" id="path-1"/></defs><g id="Icon/Social/Pintrest" stroke="none" stroke-width="1" fill="none" fill-rule="evenodd"><g id="↳🎨-Color"><mask id="mask-2" fill="#fff"><use xlink:href="#path-1"/></mask><use id="Mask" fill="#444" xlink:href="#path-1"/><g id="Color/Grayscale/80" mask="url(#mask-2)" fill="#A4A9AC"><path id="Swatch" d="M0 0h48v48H0z"/></g></g></g></svg>