<?xml version="1.0" encoding="UTF-8"?>
<svg width="48px" height="48px" viewBox="0 0 48 48" version="1.1" xmlns="http://www.w3.org/2000/svg" xmlns:xlink="http://www.w3.org/1999/xlink">
    <!-- Generator: Sketch 52.3 (67297) - http://www.bohemiancoding.com/sketch -->
    <title>Icon/Social/Pintrest@2x</title>
    <desc>Created with Sketch.</desc>
    <defs>
        <path d="M25.851,29.3445 C24.363,29.3445 22.962,28.5405 22.4835,27.6255 C22.4835,27.6255 21.6825,30.8025 21.5145,31.416 C20.9175,33.582 19.161,35.7495 19.0245,35.9265 C18.93,36.051 18.72,36.012 18.6975,35.8485 C18.66,35.5725 18.2115,32.838 18.7395,30.609 C19.0035,29.49 20.5125,23.097 20.5125,23.097 C20.5125,23.097 20.073,22.2165 20.073,20.916 C20.073,18.873 21.2565,17.3475 22.731,17.3475 C23.985,17.3475 24.5895,18.2895 24.5895,19.4175 C24.5895,20.6775 23.787,22.563 23.373,24.309 C23.0265,25.7715 24.1065,26.964 25.5495,26.964 C28.1595,26.964 29.919,23.61 29.919,19.635 C29.919,16.614 27.885,14.352 24.183,14.352 C20.0025,14.352 17.3955,17.4705 17.3955,20.955 C17.3955,22.155 17.751,23.0025 18.306,23.658 C18.561,23.9595 18.597,24.081 18.504,24.426 C18.4365,24.681 18.2865,25.29 18.222,25.533 C18.1305,25.8825 17.8485,26.007 17.532,25.878 C15.6075,25.092 14.709,22.9815 14.709,20.6115 C14.709,16.695 18.012,12 24.561,12 C29.826,12 33.2895,15.807 33.2895,19.8975 C33.2895,25.305 30.282,29.3445 25.851,29.3445 L25.851,29.3445 Z M0,48 L48,48 L48,-7.10542736e-15 L0,-7.10542736e-15 L0,48 Z" id="path-1"></path>
    </defs>
    <g id="Icon/Social/Pintrest" stroke="none" stroke-width="1" fill="none" fill-rule="evenodd">
        <g id="↳🎨-Color">
            <mask id="mask-2" fill="white">
                <use xlink:href="#path-1"></use>
            </mask>
            <use id="Mask" fill="#444444" xlink:href="#path-1"></use>
            <g id="Color/Grayscale/80" mask="url(#mask-2)" fill="#A4A9AC">
                <rect id="Swatch" x="0" y="0" width="48" height="48"></rect>
            </g>
        </g>
    </g>
</svg>