<?xml version="1.0" encoding="UTF-8"?>
<svg width="48px" height="48px" viewBox="0 0 48 48" version="1.1" xmlns="http://www.w3.org/2000/svg" xmlns:xlink="http://www.w3.org/1999/xlink">
    <!-- Generator: Sketch 52.3 (67297) - http://www.bohemiancoding.com/sketch -->
    <title>Icon/Social/Twitter@2x</title>
    <desc>Created with Sketch.</desc>
    <defs>
        <path d="M33.7377551,18.594541 C33.7469388,18.806988 33.7530612,19.0194351 33.7530612,19.2348956 C33.7530612,25.7695257 28.6989796,33.3061224 19.4571429,33.3061224 C16.6193878,33.3061224 13.9790816,32.4879753 11.755102,31.0852221 C12.1484694,31.1304236 12.5479592,31.1530243 12.9535714,31.1530243 C15.3076531,31.1530243 17.4734694,30.3635048 19.1938776,29.0360874 C16.9943878,28.9969128 15.1392857,27.5670387 14.4994898,25.6022802 C14.8071429,25.6595354 15.1209184,25.6896697 15.4454082,25.6896697 C15.9030612,25.6896697 16.3469388,25.6294011 16.7693878,25.5163973 C14.4704082,25.0628756 12.7392857,23.0634626 12.7392857,20.6677831 L12.7392857,20.604501 C13.4158163,20.9751533 14.1918367,21.1981474 15.0153061,21.2237615 C13.6668367,20.3363054 12.7790816,18.8220552 12.7790816,17.1074116 C12.7790816,16.2003682 13.0270408,15.35058 13.4602041,14.6198224 C15.9382653,17.6121617 19.6408163,19.5814404 23.8163265,19.7878606 C23.7306122,19.4262486 23.6862245,19.0480627 23.6862245,18.6608365 C23.6862245,15.9291592 25.9362245,13.7142857 28.7096939,13.7142857 C30.1561224,13.7142857 31.4617347,14.3154657 32.3770408,15.2767509 C33.5219388,15.0552635 34.5979592,14.6439299 35.5683673,14.0774044 C35.1933673,15.2315494 34.3959184,16.2003682 33.3596939,16.8136019 C34.3760204,16.6930646 35.3433673,16.4278824 36.244898,16.0346294 C35.5714286,17.0260489 34.7188776,17.8969312 33.7377551,18.594541 L33.7377551,18.594541 Z M0,48 L48,48 L48,0 L0,0 L0,48 Z" id="path-1"></path>
    </defs>
    <g id="Icon/Social/Twitter" stroke="none" stroke-width="1" fill="none" fill-rule="evenodd">
        <g id="↳🎨-Color">
            <mask id="mask-2" fill="white">
                <use xlink:href="#path-1"></use>
            </mask>
            <use id="Mask" fill="#444444" xlink:href="#path-1"></use>
            <g id="Color/Grayscale/80" mask="url(#mask-2)" fill="#A4A9AC">
                <rect id="Swatch" x="0" y="0" width="48" height="48"></rect>
            </g>
        </g>
    </g>
</svg>